<svg width="3300" height="2200" viewBox="0 0 3300 2200" fill="none" xmlns="http://www.w3.org/2000/svg">
<g id="rectangle.portrait 1" clip-path="url(#clip0_18_713)">
<g id="Notes">
<path id="artboard" d="M3283 -30H-17V2170H3283V-30Z" fill="white"/>
<path id="Vector" d="M247 263H3020" stroke="black" stroke-width="0.5"/>
<text id="Weight/Scale Variations" fill="black" xml:space="preserve" style="white-space: pre" font-family="Inter" font-size="13" font-weight="bold" letter-spacing="0em"><tspan x="247" y="292.727">Weight/Scale Variations</tspan></text>
<text id="Ultralight" fill="black" xml:space="preserve" style="white-space: pre" font-family="Inter" font-size="13" letter-spacing="0em"><tspan x="515.661" y="292.727">Ultralight</tspan></text>
<text id="Thin" fill="black" xml:space="preserve" style="white-space: pre" font-family="Inter" font-size="13" letter-spacing="0em"><tspan x="827.066" y="292.727">Thin</tspan></text>
<text id="Light" fill="black" xml:space="preserve" style="white-space: pre" font-family="Inter" font-size="13" letter-spacing="0em"><tspan x="1121.77" y="292.727">Light</tspan></text>
<text id="Regular" fill="black" xml:space="preserve" style="white-space: pre" font-family="Inter" font-size="13" letter-spacing="0em"><tspan x="1410.58" y="292.727">Regular</tspan></text>
<text id="Medium" fill="black" xml:space="preserve" style="white-space: pre" font-family="Inter" font-size="13" letter-spacing="0em"><tspan x="1705.99" y="292.727">Medium</tspan></text>
<text id="Semibold" fill="black" xml:space="preserve" style="white-space: pre" font-family="Inter" font-size="13" letter-spacing="0em"><tspan x="1998.65" y="292.727">Semibold</tspan></text>
<text id="Bold" fill="black" xml:space="preserve" style="white-space: pre" font-family="Inter" font-size="13" letter-spacing="0em"><tspan x="2310.29" y="292.727">Bold</tspan></text>
<text id="Heavy" fill="black" xml:space="preserve" style="white-space: pre" font-family="Inter" font-size="13" letter-spacing="0em"><tspan x="2601.32" y="292.727">Heavy</tspan></text>
<text id="Black" fill="black" xml:space="preserve" style="white-space: pre" font-family="Inter" font-size="13" letter-spacing="0em"><tspan x="2900.8" y="292.727">Black</tspan></text>
<path id="Vector_2" d="M247 1874H3020" stroke="black" stroke-width="0.5"/>
<g id="Group">
<path id="Vector_3" d="M256.248 1904.83C257.329 1904.83 258.344 1904.62 259.295 1904.21C260.245 1903.8 261.084 1903.23 261.81 1902.51C262.535 1901.78 263.105 1900.94 263.519 1899.99C263.932 1899.04 264.139 1898.02 264.139 1896.95C264.139 1895.87 263.932 1894.86 263.519 1893.91C263.105 1892.96 262.534 1892.12 261.805 1891.39C261.075 1890.66 260.236 1890.09 259.285 1889.68C258.335 1889.27 257.319 1889.07 256.238 1889.07C255.164 1889.07 254.152 1889.27 253.201 1889.68C252.251 1890.09 251.414 1890.66 250.691 1891.39C249.969 1892.12 249.401 1892.96 248.987 1893.91C248.574 1894.86 248.367 1895.87 248.367 1896.95C248.367 1898.02 248.574 1899.04 248.987 1899.99C249.401 1900.94 249.97 1901.78 250.696 1902.51C251.422 1903.23 252.26 1903.8 253.211 1904.21C254.161 1904.62 255.174 1904.83 256.248 1904.83ZM256.248 1903.35C255.363 1903.35 254.534 1903.18 253.763 1902.85C252.991 1902.52 252.314 1902.07 251.731 1901.48C251.149 1900.89 250.693 1900.21 250.364 1899.44C250.035 1898.66 249.871 1897.83 249.871 1896.95C249.871 1896.06 250.034 1895.23 250.359 1894.46C250.685 1893.68 251.139 1893 251.722 1892.42C252.304 1891.83 252.981 1891.37 253.753 1891.05C254.524 1890.72 255.353 1890.55 256.238 1890.55C257.13 1890.55 257.964 1890.72 258.738 1891.05C259.513 1891.37 260.193 1891.83 260.779 1892.42C261.365 1893 261.823 1893.68 262.151 1894.46C262.48 1895.23 262.644 1896.06 262.644 1896.95C262.644 1897.83 262.48 1898.66 262.151 1899.44C261.823 1900.21 261.365 1900.89 260.779 1901.48C260.193 1902.07 259.515 1902.52 258.743 1902.85C257.972 1903.18 257.14 1903.35 256.248 1903.35ZM252.654 1896.95C252.654 1897.16 252.723 1897.34 252.859 1897.47C252.996 1897.61 253.178 1897.67 253.406 1897.67H255.516V1899.79C255.516 1900.01 255.581 1900.18 255.711 1900.32C255.841 1900.46 256.017 1900.53 256.238 1900.53C256.453 1900.53 256.631 1900.46 256.771 1900.32C256.91 1900.18 256.98 1900.01 256.98 1899.79V1897.67H259.09C259.311 1897.67 259.49 1897.61 259.627 1897.47C259.764 1897.34 259.832 1897.16 259.832 1896.95C259.832 1896.73 259.764 1896.55 259.627 1896.41C259.49 1896.28 259.311 1896.21 259.09 1896.21H256.98V1894.1C256.98 1893.88 256.91 1893.7 256.771 1893.56C256.631 1893.42 256.453 1893.35 256.238 1893.35C256.017 1893.35 255.841 1893.42 255.711 1893.56C255.581 1893.7 255.516 1893.88 255.516 1894.1V1896.21H253.406C253.178 1896.21 252.996 1896.28 252.859 1896.41C252.723 1896.55 252.654 1896.73 252.654 1896.95Z" fill="black"/>
</g>
<g id="Group_2">
<path id="Vector_4" d="M277.576 1906.91C278.937 1906.91 280.218 1906.65 281.419 1906.13C282.62 1905.61 283.679 1904.89 284.597 1903.97C285.515 1903.05 286.235 1901.99 286.756 1900.79C287.276 1899.59 287.537 1898.31 287.537 1896.95C287.537 1895.59 287.276 1894.31 286.756 1893.11C286.235 1891.91 285.515 1890.85 284.597 1889.93C283.679 1889.01 282.618 1888.29 281.414 1887.77C280.209 1887.25 278.927 1886.99 277.566 1886.99C276.205 1886.99 274.925 1887.25 273.723 1887.77C272.522 1888.29 271.464 1889.01 270.55 1889.93C269.635 1890.85 268.917 1891.91 268.396 1893.11C267.875 1894.31 267.615 1895.59 267.615 1896.95C267.615 1898.31 267.875 1899.59 268.396 1900.79C268.917 1901.99 269.636 1903.05 270.554 1903.97C271.472 1904.89 272.532 1905.61 273.733 1906.13C274.934 1906.65 276.215 1906.91 277.576 1906.91ZM277.576 1905.25C276.424 1905.25 275.346 1905.04 274.344 1904.61C273.341 1904.18 272.46 1903.58 271.702 1902.82C270.943 1902.06 270.351 1901.18 269.925 1900.18C269.498 1899.18 269.285 1898.1 269.285 1896.95C269.285 1895.8 269.498 1894.72 269.925 1893.72C270.351 1892.71 270.942 1891.83 271.697 1891.07C272.452 1890.31 273.331 1889.71 274.334 1889.29C275.336 1888.86 276.414 1888.65 277.566 1888.65C278.718 1888.65 279.798 1888.86 280.803 1889.29C281.809 1889.71 282.691 1890.31 283.45 1891.07C284.208 1891.83 284.802 1892.71 285.232 1893.72C285.662 1894.72 285.877 1895.8 285.877 1896.95C285.877 1898.1 285.664 1899.18 285.237 1900.18C284.811 1901.18 284.217 1902.06 283.455 1902.82C282.693 1903.58 281.811 1904.18 280.808 1904.61C279.806 1905.04 278.728 1905.25 277.576 1905.25ZM273.045 1896.95C273.045 1897.18 273.123 1897.38 273.279 1897.53C273.435 1897.68 273.637 1897.75 273.885 1897.75H276.756V1900.63C276.756 1900.88 276.831 1901.08 276.98 1901.23C277.13 1901.38 277.322 1901.46 277.556 1901.46C277.804 1901.46 278.004 1901.38 278.157 1901.23C278.31 1901.08 278.386 1900.88 278.386 1900.63V1897.75H281.267C281.515 1897.75 281.715 1897.68 281.868 1897.53C282.021 1897.38 282.097 1897.18 282.097 1896.95C282.097 1896.7 282.021 1896.5 281.868 1896.35C281.715 1896.2 281.515 1896.12 281.267 1896.12H278.386V1893.25C278.386 1892.99 278.31 1892.79 278.157 1892.64C278.004 1892.48 277.804 1892.41 277.556 1892.41C277.322 1892.41 277.13 1892.49 276.98 1892.64C276.831 1892.8 276.756 1893 276.756 1893.25V1896.12H273.885C273.631 1896.12 273.427 1896.2 273.274 1896.35C273.121 1896.5 273.045 1896.7 273.045 1896.95Z" fill="black"/>
</g>
<g id="Group_3">
<path id="Vector_5" d="M304.617 1909.66C306.01 1909.66 307.34 1909.45 308.606 1909.01C309.872 1908.58 311.036 1907.97 312.097 1907.19C313.158 1906.41 314.081 1905.49 314.866 1904.43C315.65 1903.37 316.259 1902.2 316.692 1900.93C317.125 1899.66 317.341 1898.34 317.341 1896.95C317.341 1895.56 317.125 1894.23 316.692 1892.96C316.259 1891.69 315.65 1890.53 314.866 1889.47C314.081 1888.41 313.158 1887.48 312.097 1886.7C311.036 1885.92 309.871 1885.31 308.601 1884.87C307.332 1884.44 306 1884.22 304.607 1884.22C303.214 1884.22 301.884 1884.44 300.618 1884.87C299.351 1885.31 298.189 1885.92 297.131 1886.7C296.073 1887.48 295.152 1888.41 294.368 1889.47C293.583 1890.53 292.976 1891.69 292.546 1892.96C292.117 1894.23 291.902 1895.56 291.902 1896.95C291.902 1898.34 292.118 1899.66 292.551 1900.93C292.984 1902.2 293.591 1903.37 294.373 1904.43C295.154 1905.49 296.075 1906.41 297.136 1907.19C298.197 1907.97 299.361 1908.58 300.627 1909.01C301.894 1909.45 303.223 1909.66 304.617 1909.66ZM304.617 1907.85C303.412 1907.85 302.265 1907.66 301.174 1907.3C300.084 1906.93 299.086 1906.41 298.181 1905.75C297.276 1905.08 296.49 1904.3 295.823 1903.39C295.155 1902.48 294.639 1901.48 294.275 1900.39C293.91 1899.3 293.728 1898.15 293.728 1896.95C293.728 1895.74 293.91 1894.59 294.275 1893.5C294.639 1892.41 295.154 1891.41 295.818 1890.5C296.482 1889.59 297.266 1888.8 298.171 1888.14C299.076 1887.48 300.074 1886.96 301.165 1886.6C302.255 1886.23 303.402 1886.05 304.607 1886.05C305.818 1886.05 306.969 1886.23 308.059 1886.6C309.15 1886.96 310.149 1887.48 311.057 1888.14C311.965 1888.8 312.753 1889.59 313.42 1890.5C314.088 1891.41 314.604 1892.41 314.968 1893.5C315.333 1894.59 315.515 1895.74 315.515 1896.95C315.515 1898.15 315.333 1899.3 314.968 1900.39C314.604 1901.48 314.089 1902.48 313.425 1903.39C312.761 1904.3 311.975 1905.08 311.067 1905.75C310.159 1906.41 309.159 1906.93 308.069 1907.3C306.978 1907.66 305.828 1907.85 304.617 1907.85ZM298.845 1896.95C298.845 1897.2 298.931 1897.41 299.104 1897.58C299.277 1897.75 299.496 1897.83 299.763 1897.83H303.708V1901.78C303.708 1902.05 303.791 1902.27 303.957 1902.44C304.123 1902.61 304.337 1902.7 304.597 1902.7C304.864 1902.7 305.084 1902.62 305.256 1902.45C305.429 1902.28 305.515 1902.06 305.515 1901.78V1897.83H309.47C309.737 1897.83 309.955 1897.75 310.124 1897.58C310.294 1897.41 310.378 1897.2 310.378 1896.95C310.378 1896.68 310.294 1896.45 310.124 1896.29C309.955 1896.12 309.737 1896.03 309.47 1896.03H305.515V1892.09C305.515 1891.81 305.429 1891.59 305.256 1891.42C305.084 1891.24 304.864 1891.16 304.597 1891.16C304.337 1891.16 304.123 1891.24 303.957 1891.42C303.791 1891.59 303.708 1891.81 303.708 1892.09V1896.03H299.763C299.49 1896.03 299.268 1896.12 299.099 1896.29C298.93 1896.45 298.845 1896.68 298.845 1896.95Z" fill="black"/>
</g>
<text id="Design Variations" fill="black" xml:space="preserve" style="white-space: pre" font-family="Inter" font-size="13" font-weight="bold" letter-spacing="0em"><tspan x="247" y="1923.73">Design Variations</tspan></text>
<text id="Symbols are supported in up to nine weights and three scales." fill="black" xml:space="preserve" style="white-space: pre" font-family="Inter" font-size="13" letter-spacing="0em"><tspan x="247" y="1941.73">Symbols are supported in up to nine weights and three scales.</tspan></text>
<text id="For optimal layout with text and other symbols, vertically align" fill="black" xml:space="preserve" style="white-space: pre" font-family="Inter" font-size="13" letter-spacing="0em"><tspan x="247" y="1959.73">For optimal layout with text and other symbols, vertically align</tspan></text>
<text id="symbols with the adjacent text." fill="black" xml:space="preserve" style="white-space: pre" font-family="Inter" font-size="13" letter-spacing="0em"><tspan x="247" y="1977.73">symbols with the adjacent text.</tspan></text>
<path id="Vector_6" d="M760 1890V1904" stroke="#00AEEF" stroke-width="0.5"/>
<g id="Group_4">
<path id="Vector_7" d="M763.311 1904.16C763.571 1904.16 763.773 1904.1 763.916 1903.99C764.059 1903.88 764.176 1903.69 764.268 1903.41L765.527 1899.97H771.289L772.549 1903.41C772.64 1903.69 772.757 1903.88 772.9 1903.99C773.044 1904.1 773.242 1904.16 773.496 1904.16C773.757 1904.16 773.963 1904.08 774.116 1903.94C774.269 1903.8 774.346 1903.6 774.346 1903.36C774.346 1903.21 774.31 1903.03 774.238 1902.83L769.658 1890.63C769.541 1890.33 769.382 1890.11 769.18 1889.96C768.978 1889.81 768.721 1889.73 768.408 1889.73C767.803 1889.73 767.393 1890.03 767.178 1890.62L762.598 1902.84C762.526 1903.04 762.49 1903.22 762.49 1903.37C762.49 1903.61 762.563 1903.81 762.71 1903.95C762.856 1904.09 763.057 1904.16 763.311 1904.16ZM766.006 1898.48L768.379 1891.91H768.428L770.801 1898.48H766.006Z" fill="black"/>
</g>
<path id="Vector_8" d="M777.197 1890V1904" stroke="#00AEEF" stroke-width="0.5"/>
<text id="Margins" fill="black" xml:space="preserve" style="white-space: pre" font-family="Inter" font-size="13" font-weight="bold" letter-spacing="0em"><tspan x="760" y="1923.73">Margins</tspan></text>
<text id="Leading and trailing margins on the left and right side of each symbol" fill="black" xml:space="preserve" style="white-space: pre" font-family="Inter" font-size="13" letter-spacing="0em"><tspan x="760" y="1941.73">Leading and trailing margins on the left and right side of each symbol</tspan></text>
<text id="can be adjusted by modifying the x-location of the margin guidelines." fill="black" xml:space="preserve" style="white-space: pre" font-family="Inter" font-size="13" letter-spacing="0em"><tspan x="760" y="1959.73">can be adjusted by modifying the x-location of the margin guidelines.</tspan></text>
<text id="Modifications are automatically applied proportionally to all" fill="black" xml:space="preserve" style="white-space: pre" font-family="Inter" font-size="13" letter-spacing="0em"><tspan x="760" y="1977.73">Modifications are automatically applied proportionally to all</tspan></text>
<text id="scales and weights." fill="black" xml:space="preserve" style="white-space: pre" font-family="Inter" font-size="13" letter-spacing="0em"><tspan x="760" y="1995.73">scales and weights.</tspan></text>
<g id="Group_5">
<path id="Vector_9" d="M1275.84 1905.87L1277.54 1907.57C1277.97 1908.01 1278.42 1908.21 1278.9 1908.18C1279.38 1908.15 1279.85 1907.87 1280.31 1907.36L1291.01 1895.57L1290.04 1894.6L1279.43 1906.28C1279.25 1906.48 1279.07 1906.59 1278.89 1906.62C1278.71 1906.64 1278.51 1906.54 1278.27 1906.3L1277.1 1905.14C1276.87 1904.91 1276.76 1904.7 1276.79 1904.52C1276.82 1904.34 1276.94 1904.16 1277.14 1903.98L1288.62 1893.18L1287.64 1892.21L1276.05 1903.1C1275.55 1903.56 1275.29 1904.02 1275.25 1904.5C1275.22 1904.97 1275.41 1905.43 1275.84 1905.87ZM1282.26 1887.67C1282.05 1887.87 1281.93 1888.1 1281.91 1888.37C1281.88 1888.63 1281.93 1888.85 1282.04 1889.05C1282.16 1889.23 1282.33 1889.37 1282.56 1889.46C1282.78 1889.55 1283.06 1889.56 1283.38 1889.48C1284.11 1889.31 1284.85 1889.24 1285.6 1889.27C1286.35 1889.3 1287.08 1889.55 1287.79 1890.02L1287.21 1891.47C1287.04 1891.89 1286.99 1892.25 1287.07 1892.56C1287.14 1892.87 1287.31 1893.16 1287.58 1893.43L1289.87 1895.75C1290.12 1896 1290.35 1896.14 1290.58 1896.18C1290.81 1896.22 1291.06 1896.21 1291.34 1896.16L1292.4 1895.96L1293.07 1896.64L1293.03 1897.19C1293.01 1897.44 1293.04 1897.67 1293.12 1897.88C1293.2 1898.09 1293.36 1898.31 1293.61 1898.55L1294.37 1899.29C1294.61 1899.53 1294.87 1899.66 1295.15 1899.67C1295.44 1899.68 1295.7 1899.57 1295.93 1899.33L1298.84 1896.41C1299.07 1896.18 1299.19 1895.92 1299.18 1895.65C1299.18 1895.37 1299.05 1895.11 1298.81 1894.87L1298.04 1894.11C1297.8 1893.87 1297.58 1893.7 1297.38 1893.61C1297.17 1893.53 1296.95 1893.49 1296.71 1893.51L1296.13 1893.56L1295.49 1892.93L1295.73 1891.8C1295.8 1891.52 1295.79 1891.26 1295.7 1891.02C1295.6 1890.77 1295.41 1890.5 1295.12 1890.21L1292.92 1888.02C1292.09 1887.2 1291.2 1886.58 1290.26 1886.16C1289.32 1885.75 1288.37 1885.53 1287.42 1885.52C1286.47 1885.5 1285.55 1885.68 1284.66 1886.04C1283.78 1886.41 1282.98 1886.95 1282.26 1887.67ZM1283.75 1888.04C1284.36 1887.6 1285.01 1887.28 1285.7 1887.1C1286.39 1886.91 1287.1 1886.85 1287.8 1886.92C1288.51 1886.98 1289.2 1887.17 1289.87 1887.49C1290.54 1887.8 1291.15 1888.24 1291.7 1888.79L1294.13 1891.21C1294.25 1891.32 1294.32 1891.44 1294.35 1891.55C1294.38 1891.66 1294.38 1891.8 1294.34 1891.97L1294.02 1893.45L1295.52 1894.94L1296.51 1894.88C1296.63 1894.87 1296.72 1894.88 1296.79 1894.9C1296.85 1894.93 1296.94 1894.99 1297.03 1895.08L1297.61 1895.66L1295.17 1898.1L1294.59 1897.53C1294.49 1897.43 1294.43 1897.35 1294.41 1897.28C1294.38 1897.22 1294.37 1897.12 1294.38 1896.99L1294.45 1896.01L1292.95 1894.53L1291.43 1894.78C1291.26 1894.81 1291.14 1894.82 1291.04 1894.8C1290.95 1894.77 1290.84 1894.7 1290.71 1894.59L1288.71 1892.58C1288.58 1892.47 1288.51 1892.35 1288.49 1892.25C1288.48 1892.14 1288.51 1891.99 1288.59 1891.81L1289.46 1889.72C1288.68 1888.99 1287.8 1888.49 1286.83 1888.21C1285.85 1887.93 1284.86 1887.94 1283.84 1888.24C1283.76 1888.26 1283.71 1888.24 1283.69 1888.19C1283.67 1888.15 1283.69 1888.1 1283.75 1888.04Z" fill="black"/>
</g>
<text id="Exporting" fill="black" xml:space="preserve" style="white-space: pre" font-family="Inter" font-size="13" font-weight="bold" letter-spacing="0em"><tspan x="1273" y="1923.73">Exporting</tspan></text>
<text id="Symbols should be outlined when exporting to ensure the" fill="black" xml:space="preserve" style="white-space: pre" font-family="Inter" font-size="13" letter-spacing="0em"><tspan x="1273" y="1941.73">Symbols should be outlined when exporting to ensure the</tspan></text>
<text id="design is preserved when submitting to Xcode." fill="black" xml:space="preserve" style="white-space: pre" font-family="Inter" font-size="13" letter-spacing="0em"><tspan x="1273" y="1959.73">design is preserved when submitting to Xcode.</tspan></text>
<text id="template-version" fill="black" xml:space="preserve" style="white-space: pre" font-family="Inter" font-size="13" letter-spacing="0em"><tspan x="2929.98" y="1903.73">Template v.4.0</tspan></text>
<text id="Requires Xcode 14 or greater" fill="black" xml:space="preserve" style="white-space: pre" font-family="Inter" font-size="13" letter-spacing="0em"><tspan x="2841.94" y="1921.73">Requires Xcode 14 or greater</tspan></text>
<text id="descriptive-name" fill="black" xml:space="preserve" style="white-space: pre" font-family="Inter" font-size="13" letter-spacing="0em"><tspan x="2812.57" y="1939.73">Generated from rectangle.portrait</tspan></text>
<text id="Typeset at 100 points" fill="black" xml:space="preserve" style="white-space: pre" font-family="Inter" font-size="13" letter-spacing="0em"><tspan x="2887.6" y="1957.73">Typeset at 100 points</tspan></text>
<text id="Small" fill="black" xml:space="preserve" style="white-space: pre" font-family="Inter" font-size="13" letter-spacing="0em"><tspan x="247" y="696.727">Small</tspan></text>
<text id="Medium_2" fill="black" xml:space="preserve" style="white-space: pre" font-family="Inter" font-size="13" letter-spacing="0em"><tspan x="247" y="1126.73">Medium</tspan></text>
<text id="Large" fill="black" xml:space="preserve" style="white-space: pre" font-family="Inter" font-size="13" letter-spacing="0em"><tspan x="247" y="1556.73">Large</tspan></text>
</g>
<g id="Guides">
<g id="H-reference">
<path id="Vector_10" d="M339.993 696H342.638L368.328 628.867H369.03V625.541H367.123L339.993 696ZM350.688 671.52H385.982L385.231 669.271H351.438L350.688 671.52ZM394.119 696H396.764L369.638 625.541H368.433V628.867L394.119 696Z" fill="#27AAE1"/>
</g>
<path id="Baseline-S" d="M263 696H3036" stroke="#27AAE1" stroke-width="0.5"/>
<path id="Capline-S" d="M263 625.541H3036" stroke="#27AAE1" stroke-width="0.5"/>
<g id="H-reference_2">
<path id="Vector_11" d="M339.993 1126H342.638L368.328 1058.87H369.03V1055.54H367.123L339.993 1126ZM350.688 1101.52H385.982L385.231 1099.27H351.438L350.688 1101.52ZM394.119 1126H396.764L369.638 1055.54H368.433V1058.87L394.119 1126Z" fill="#27AAE1"/>
</g>
<path id="Baseline-M" d="M263 1126H3036" stroke="#27AAE1" stroke-width="0.5"/>
<path id="Capline-M" d="M263 1055.54H3036" stroke="#27AAE1" stroke-width="0.5"/>
<g id="H-reference_3">
<path id="Vector_12" d="M339.993 1556H342.638L368.328 1488.87H369.03V1485.54H367.123L339.993 1556ZM350.688 1531.52H385.982L385.231 1529.27H351.438L350.688 1531.52ZM394.119 1556H396.764L369.638 1485.54H368.433V1488.87L394.119 1556Z" fill="#27AAE1"/>
</g>
<path id="Baseline-L" d="M263 1556H3036" stroke="#27AAE1" stroke-width="0.5"/>
<path id="Capline-L" d="M263 1485.54H3036" stroke="#27AAE1" stroke-width="0.5"/>
<path id="left-margin-Ultralight-S" d="M519.288 600.785V720.121" stroke="#00AEEF" stroke-width="0.5"/>
<path id="right-margin-Ultralight-S" d="M600.134 600.785V720.121" stroke="#00AEEF" stroke-width="0.5"/>
<path id="left-margin-Regular-S" d="M1407.56 600.785V720.121" stroke="#00AEEF" stroke-width="0.5"/>
<path id="right-margin-Regular-S" d="M1492.13 600.785V720.121" stroke="#00AEEF" stroke-width="0.5"/>
<path id="left-margin-Black-S" d="M2887.7 600.785V720.121" stroke="#00AEEF" stroke-width="0.5"/>
<path id="right-margin-Black-S" d="M2979.1 600.785V720.121" stroke="#00AEEF" stroke-width="0.5"/>
</g>
<g id="Symbols">
<g id="Black-S">
<g id="Vector_13">
<path d="M2898.03 699.892C2898.03 701.267 2898.37 702.295 2899.04 702.977C2899.72 703.659 2900.73 704 2902.09 704H2915.5C2916.85 704 2917.87 703.659 2918.55 702.977C2919.23 702.295 2919.57 701.267 2919.57 699.892L2919.57 639.902C2919.57 638.538 2919.23 637.512 2918.55 636.825C2917.87 636.137 2916.85 635.794 2915.49 635.794H2902.09C2900.73 635.794 2899.72 636.137 2899.04 636.825C2898.37 637.512 2898.03 638.538 2898.03 639.902L2898.03 699.892Z" fill="black"/>
<path d="M2898 627.274C2898 628.649 2898.34 629.677 2899.01 630.359C2899.68 631.041 2900.7 631.382 2902.06 631.382H2915.46C2916.82 631.382 2917.84 631.041 2918.52 630.359C2919.2 629.677 2919.54 628.649 2919.54 627.274L2919.55 622.108C2919.55 620.744 2919.21 619.718 2918.53 619.031C2917.85 618.344 2916.83 618 2915.47 618H2902.07C2900.71 618 2899.7 618.344 2899.02 619.031C2898.35 619.718 2898.01 620.744 2898.01 622.108L2898 627.274Z" fill="black"/>
<path d="M2948.46 699.892C2948.46 701.267 2948.8 702.295 2949.47 702.977C2950.15 703.659 2951.16 704 2952.52 704H2965.93C2967.28 704 2968.3 703.659 2968.98 702.977C2969.66 702.295 2970 701.267 2970 699.892L2970 639.902C2970 638.538 2969.66 637.512 2968.98 636.825C2968.3 636.137 2967.28 635.794 2965.92 635.794H2952.52C2951.16 635.794 2950.15 636.137 2949.47 636.825C2948.8 637.512 2948.46 638.538 2948.46 639.902L2948.46 699.892Z" fill="black"/>
<path d="M2948.43 627.274C2948.43 628.649 2948.77 629.677 2949.44 630.359C2950.11 631.041 2951.13 631.382 2952.49 631.382H2965.89C2967.25 631.382 2968.27 631.041 2968.95 630.359C2969.63 629.677 2969.97 628.649 2969.97 627.274L2969.98 622.108C2969.98 620.744 2969.64 619.718 2968.96 619.031C2968.28 618.344 2967.26 618 2965.9 618H2952.5C2951.14 618 2950.13 618.344 2949.45 619.031C2948.78 619.718 2948.44 620.744 2948.44 622.108L2948.43 627.274Z" fill="black"/>
<path d="M2923.25 699.892C2923.25 701.267 2923.58 702.295 2924.26 702.977C2924.93 703.659 2925.95 704 2927.31 704H2940.71C2942.07 704 2943.09 703.659 2943.77 702.977C2944.45 702.295 2944.78 701.267 2944.78 699.892L2944.78 639.902C2944.78 638.538 2944.44 637.512 2943.77 636.825C2943.09 636.137 2942.07 635.794 2940.71 635.794H2927.31C2925.95 635.794 2924.93 636.137 2924.26 636.825C2923.58 637.512 2923.25 638.538 2923.25 639.902L2923.25 699.892Z" fill="black"/>
<path d="M2923.22 627.274C2923.22 628.649 2923.55 629.677 2924.23 630.359C2924.9 631.041 2925.92 631.382 2927.27 631.382H2940.68C2942.04 631.382 2943.06 631.041 2943.73 630.359C2944.41 629.677 2944.75 628.649 2944.75 627.274L2944.76 622.108C2944.76 620.744 2944.42 619.718 2943.75 619.031C2943.07 618.344 2942.05 618 2940.69 618H2927.28C2925.93 618 2924.91 618.344 2924.24 619.031C2923.56 619.718 2923.23 620.744 2923.23 622.108L2923.22 627.274Z" fill="black"/>
</g>
</g>
<g id="Regular-S">
<g id="Vector_14">
<path d="M1417.03 698.239C1417.03 699.552 1417.35 700.535 1417.99 701.186C1418.63 701.838 1419.6 702.164 1420.89 702.164H1433.65C1434.94 702.164 1435.91 701.838 1436.56 701.186C1437.21 700.535 1437.53 699.552 1437.53 698.239L1437.53 640.924C1437.53 639.621 1437.21 638.642 1436.56 637.985C1435.91 637.328 1434.94 637 1433.65 637H1420.89C1419.6 637 1418.63 637.328 1417.99 637.985C1417.35 638.642 1417.03 639.621 1417.03 640.924L1417.03 698.239Z" fill="black"/>
<path d="M1417 628.86C1417 630.174 1417.32 631.156 1417.96 631.808C1418.6 632.459 1419.57 632.785 1420.86 632.785H1433.62C1434.91 632.785 1435.88 632.459 1436.53 631.808C1437.18 631.156 1437.5 630.174 1437.5 628.86L1437.51 623.924C1437.51 622.621 1437.19 621.642 1436.54 620.985C1435.89 620.328 1434.93 620 1433.63 620H1420.87C1419.58 620 1418.61 620.328 1417.97 620.985C1417.33 621.642 1417.01 622.621 1417.01 623.924L1417 628.86Z" fill="black"/>
<path d="M1465.03 698.239C1465.03 699.552 1465.35 700.535 1465.99 701.186C1466.63 701.838 1467.6 702.164 1468.89 702.164H1481.65C1482.94 702.164 1483.91 701.838 1484.56 701.186C1485.21 700.535 1485.53 699.552 1485.53 698.239L1485.53 640.924C1485.53 639.621 1485.21 638.642 1484.56 637.985C1483.91 637.328 1482.94 637 1481.65 637H1468.89C1467.6 637 1466.63 637.328 1465.99 637.985C1465.35 638.642 1465.03 639.621 1465.03 640.924L1465.03 698.239Z" fill="black"/>
<path d="M1465 628.86C1465 630.174 1465.32 631.156 1465.96 631.808C1466.6 632.459 1467.57 632.785 1468.86 632.785H1481.62C1482.91 632.785 1483.88 632.459 1484.53 631.808C1485.18 631.156 1485.5 630.174 1485.5 628.86L1485.51 623.924C1485.51 622.621 1485.19 621.642 1484.54 620.985C1483.89 620.328 1482.93 620 1481.63 620H1468.87C1467.58 620 1466.61 620.328 1465.97 620.985C1465.33 621.642 1465.01 622.621 1465.01 623.924L1465 628.86Z" fill="black"/>
<path d="M1441.03 698.239C1441.03 699.552 1441.35 700.535 1441.99 701.186C1442.63 701.838 1443.6 702.164 1444.89 702.164H1457.65C1458.94 702.164 1459.91 701.838 1460.56 701.186C1461.21 700.535 1461.53 699.552 1461.53 698.239L1461.53 640.924C1461.53 639.621 1461.21 638.642 1460.56 637.985C1459.91 637.328 1458.94 637 1457.65 637H1444.89C1443.6 637 1442.63 637.328 1441.99 637.985C1441.35 638.642 1441.03 639.621 1441.03 640.924L1441.03 698.239Z" fill="black"/>
<path d="M1441 628.86C1441 630.174 1441.32 631.156 1441.96 631.808C1442.6 632.459 1443.57 632.785 1444.86 632.785H1457.62C1458.91 632.785 1459.88 632.459 1460.53 631.808C1461.18 631.156 1461.5 630.174 1461.5 628.86L1461.51 623.924C1461.51 622.621 1461.19 621.642 1460.54 620.985C1459.89 620.328 1458.93 620 1457.63 620H1444.87C1443.58 620 1442.61 620.328 1441.97 620.985C1441.33 621.642 1441.01 622.621 1441.01 623.924L1441 628.86Z" fill="black"/>
</g>
</g>
<g id="Ultralight-S">
<g id="Vector_15">
<path d="M531.027 698.131C531.027 699.426 531.312 700.394 531.883 701.037C532.454 701.679 533.315 702 534.466 702H545.822C546.973 702 547.836 701.679 548.411 701.037C548.987 700.394 549.274 699.426 549.274 698.131L549.274 641.628C549.274 640.344 548.986 639.378 548.411 638.73C547.836 638.083 546.972 637.759 545.822 637.759H534.465C533.314 637.759 532.454 638.083 531.883 638.73C531.312 639.378 531.027 640.344 531.027 641.628L531.027 698.131Z" fill="black"/>
<path d="M531 629.735C531 631.03 531.285 631.998 531.856 632.641C532.427 633.283 533.288 633.604 534.439 633.604H545.795C546.946 633.604 547.809 633.283 548.384 632.641C548.96 631.998 549.247 631.03 549.247 629.735L549.257 624.869C549.257 623.584 548.969 622.618 548.394 621.971C547.819 621.324 546.955 621 545.805 621H534.448C533.297 621 532.437 621.324 531.866 621.971C531.295 622.618 531.01 623.584 531.01 624.869L531 629.735Z" fill="black"/>
<path d="M572.863 698.131C572.863 699.426 573.148 700.394 573.719 701.037C574.29 701.679 575.15 702 576.301 702H587.658C588.808 702 589.671 701.679 590.247 701.037C590.822 700.394 591.11 699.426 591.11 698.131L591.109 641.628C591.109 640.344 590.822 639.378 590.246 638.73C589.671 638.083 588.808 637.759 587.657 637.759H576.301C575.15 637.759 574.289 638.083 573.718 638.73C573.147 639.378 572.862 640.344 572.862 641.628L572.863 698.131Z" fill="black"/>
<path d="M572.852 629.735C572.852 631.03 573.138 631.998 573.709 632.641C574.279 633.283 575.14 633.604 576.291 633.604H587.648C588.798 633.604 589.661 633.283 590.237 632.641C590.812 631.998 591.1 631.03 591.1 629.735L591.109 624.869C591.109 623.584 590.822 622.618 590.246 621.971C589.671 621.324 588.808 621 587.657 621H576.301C575.15 621 574.289 621.324 573.718 621.971C573.147 622.618 572.862 623.584 572.862 624.869L572.852 629.735Z" fill="black"/>
<path d="M552.01 698.131C552.01 699.426 552.295 700.394 552.866 701.037C553.437 701.679 554.298 702 555.449 702H566.805C567.956 702 568.819 701.679 569.394 701.037C569.97 700.394 570.257 699.426 570.257 698.131L570.257 641.628C570.257 640.344 569.969 639.378 569.394 638.73C568.819 638.083 567.955 637.759 566.805 637.759H555.448C554.297 637.759 553.437 638.083 552.866 638.73C552.295 639.378 552.01 640.344 552.01 641.628L552.01 698.131Z" fill="black"/>
<path d="M552 629.735C552 631.03 552.285 631.998 552.856 632.641C553.427 633.283 554.288 633.604 555.439 633.604H566.795C567.946 633.604 568.809 633.283 569.384 632.641C569.96 631.998 570.247 631.03 570.247 629.735L570.257 624.869C570.257 623.584 569.969 622.618 569.394 621.971C568.819 621.324 567.955 621 566.805 621H555.448C554.297 621 553.437 621.324 552.866 621.971C552.295 622.618 552.01 623.584 552.01 624.869L552 629.735Z" fill="black"/>
</g>
</g>
</g>
</g>
<defs>
<clipPath id="clip0_18_713">
<rect width="3300" height="2200" fill="white"/>
</clipPath>
</defs>
</svg>
